# xmcd CD database file
#
# Track frame offsets:
#	150
#	19020
#	40207
#	54557
#	76198
#	92063
#	115798
#	135889
#	158023
#	173809
#	194499
#	217230
#	245174
#
# Disc length: 3387 seconds
#
# Revision: 2
# Processed by: cddbd v1.5.2PL0 Copyright (c) Steve Scherf et al.
# Submitted via: CDex 1.51
#
DISCID=aa0d390d
DTITLE=Michal Prokop - Poprvé naposledy
DYEAR=2006
DGENRE=Blues
TTITLE0=64
TTITLE1=Poprvé naposledy
TTITLE2=Leteckej inzenýr
TTITLE3=Louèení
TTITLE4=Popìvek
TTITLE5=Hotel u pøístavu
TTITLE6=Tullamore Dew
TTITLE7=Ukolébavka pro smutnou mladou paní
TTITLE8=Vedro nad Prahou
TTITLE9=Virtuální realita
TTITLE10=Zlodìji èasu
TTITLE11=Láska je protijed
TTITLE12=Dovìtek k písni Hotel u pøístavu
EXTD=Sony BMG Music Entertainment 2006\n8287676138 2 YEAR: 2006
EXTT0=
EXTT1=
EXTT2=
EXTT3=
EXTT4=
EXTT5=
EXTT6=
EXTT7=
EXTT8=
EXTT9=
EXTT10=
EXTT11=
EXTT12=
PLAYORDER=
